<?xml version="1.0" encoding="UTF-8" standalone="no"?>
<svg
   xmlns:dc="http://purl.org/dc/elements/1.1/"
   xmlns:cc="http://creativecommons.org/ns#"
   xmlns:rdf="http://www.w3.org/1999/02/22-rdf-syntax-ns#"
   xmlns:svg="http://www.w3.org/2000/svg"
   xmlns="http://www.w3.org/2000/svg"
   xmlns:sodipodi="http://sodipodi.sourceforge.net/DTD/sodipodi-0.dtd"
   xmlns:inkscape="http://www.inkscape.org/namespaces/inkscape"
   enable-background="new 0 0 91 91"
   height="91px"
   id="Layer_1"
   version="1.1"
   viewBox="0 0 91 91"
   width="91px"
   xml:space="preserve"
   sodipodi:docname="3592828-general-key-key-lock-lock-office-password-security_107759.svg"
   inkscape:version="1.0.1 (3bc2e813f5, 2020-09-07)"><metadata
     id="metadata1906"><rdf:RDF><cc:Work
         rdf:about=""><dc:format>image/svg+xml</dc:format><dc:type
           rdf:resource="http://purl.org/dc/dcmitype/StillImage" /></cc:Work></rdf:RDF></metadata><defs
     id="defs1904" /><sodipodi:namedview
     pagecolor="#ffffff"
     bordercolor="#666666"
     borderopacity="1"
     objecttolerance="10"
     gridtolerance="10"
     guidetolerance="10"
     inkscape:pageopacity="0"
     inkscape:pageshadow="2"
     inkscape:window-width="1350"
     inkscape:window-height="727"
     id="namedview1902"
     showgrid="false"
     inkscape:zoom="2.9835165"
     inkscape:cx="24.666602"
     inkscape:cy="51.453973"
     inkscape:window-x="0"
     inkscape:window-y="0"
     inkscape:window-maximized="1"
     inkscape:current-layer="Layer_1" /><g
     id="g1897"><path
       d="m 64.639,44.64 c -2.307,0 -4.176,-1.869 -4.176,-4.174 V 20.782 c 0,-6.598 -6.729,-11.963 -15,-11.963 h -0.541 c -8.275,0 -15.004,5.365 -15.004,11.963 v 19.684 c 0,2.305 -1.869,4.174 -4.176,4.174 -2.307,0 -4.176,-1.869 -4.176,-4.174 V 20.782 C 21.566,9.581 32.043,0.469 44.921,0.469 h 0.541 c 12.873,0 23.35,9.111 23.35,20.313 v 19.684 c 0.001,2.305 -1.869,4.174 -4.173,4.174 z"
       fill="#647f94"
       id="path1893"
       style="fill:#b3b3b3" /><path
       d="m 45.547,30.593 h -0.715 c -15.26,0 -27.678,10.625 -27.678,23.688 v 12.416 c 0,13.063 12.418,23.689 27.678,23.689 h 0.715 c 15.262,0 27.682,-10.627 27.682,-23.689 V 54.28 c 0,-13.062 -12.42,-23.687 -27.682,-23.687 z m 3.82,38.912 c 0,2.307 -1.869,4.176 -4.176,4.176 -2.307,0 -4.174,-1.869 -4.174,-4.176 V 53.272 c 0,-2.305 1.867,-4.174 4.174,-4.174 2.307,0 4.176,1.869 4.176,4.174 z"
       fill="#95aec2"
       id="path1895"
       style="fill:#cccccc" /></g></svg>
